<?xml version="1.0" standalone="no"?>
<!DOCTYPE svg PUBLIC "-//W3C//DTD SVG 20010904//EN"
 "http://www.w3.org/TR/2001/REC-SVG-20010904/DTD/svg10.dtd">
<svg version="1.0" xmlns="http://www.w3.org/2000/svg"
 width="30.000000pt" height="30.000000pt" viewBox="0 0 512.000000 512.000000"
 preserveAspectRatio="xMidYMid meet">

<g transform="translate(0.000000,512.000000) scale(0.100000,-0.100000)"
fill="#000000" stroke="none">
<path d="M2380 5114 c-19 -2 -78 -9 -130 -14 -330 -36 -695 -160 -990 -336
-375 -224 -680 -529 -904 -904 -175 -292 -291 -632 -338 -990 -16 -123 -16
-497 0 -620 82 -623 356 -1150 820 -1581 256 -239 575 -425 922 -539 274 -91
491 -124 800 -124 228 0 329 9 530 50 689 141 1304 583 1674 1204 175 292 291
632 338 990 16 123 16 497 0 620 -47 358 -163 698 -338 990 -224 375 -529 680
-904 904 -289 173 -634 291 -980 336 -88 12 -438 21 -500 14z m505 -170 c510
-70 988 -303 1351 -659 71 -69 89 -95 138 -192 253 -506 331 -1046 231 -1589
-20 -108 -88 -360 -100 -372 -1 -2 -25 19 -53 46 -92 89 -246 151 -378 152
-67 0 -192 -33 -257 -67 -67 -36 -184 -153 -220 -220 -34 -65 -67 -190 -67
-257 1 -157 87 -344 191 -413 51 -34 128 -42 183 -19 40 17 146 13 146 -6 0
-14 -196 -212 -285 -288 -119 -101 -299 -224 -304 -208 -9 29 -45 58 -75 58
-62 0 -100 -77 -60 -122 16 -17 11 -21 -107 -78 -68 -33 -127 -60 -131 -60 -4
0 -3 12 2 26 13 32 13 175 1 207 -7 19 -5 35 10 63 59 116 -10 238 -184 326
-116 58 -242 71 -371 38 -107 -27 -169 -63 -251 -145 -82 -82 -118 -144 -145
-251 -33 -129 -20 -255 39 -374 17 -34 31 -64 31 -67 0 -9 -268 7 -386 23
-283 37 -540 117 -807 250 -97 49 -123 67 -192 138 -310 316 -532 730 -629
1171 -67 308 -67 702 0 1010 155 704 609 1298 1247 1630 303 158 606 242 972
269 89 7 347 -5 460 -20z"/>
<path d="M2632 4787 c-46 -49 -12 -127 54 -127 39 0 74 36 74 76 0 65 -84 98
-128 51z"/>
<path d="M1542 4610 c-104 -27 -167 -64 -247 -145 -82 -82 -118 -144 -145
-251 -32 -125 -21 -250 34 -364 83 -173 197 -243 322 -195 27 10 55 14 71 10
50 -12 174 -6 226 11 116 38 207 120 261 233 30 63 31 72 32 196 0 74 6 142
12 158 33 78 0 175 -81 239 -145 114 -316 152 -485 108z"/>
<path d="M3482 4487 c-46 -49 -12 -127 54 -127 39 0 74 36 74 76 0 65 -84 98
-128 51z"/>
<path d="M3182 4337 c-46 -49 -12 -127 54 -127 39 0 74 36 74 76 0 65 -84 98
-128 51z"/>
<path d="M3842 4210 c-40 -11 -97 -32 -125 -47 -67 -36 -184 -153 -220 -220
-34 -65 -67 -190 -67 -257 1 -157 87 -344 191 -413 54 -36 138 -43 190 -16 26
14 43 17 65 11 51 -14 172 -10 227 8 116 38 207 120 261 233 26 56 31 78 31
140 0 73 -1 75 -32 97 l-33 22 24 15 c13 9 33 36 45 60 44 90 16 188 -72 259
-145 114 -316 152 -485 108z"/>
<path d="M2332 4187 c-46 -49 -12 -127 54 -127 39 0 74 36 74 76 0 65 -84 98
-128 51z"/>
<path d="M2783 4119 c-254 -42 -453 -279 -453 -539 0 -164 106 -372 214 -421
77 -35 187 -15 232 44 l20 25 13 -28 c17 -39 53 -49 131 -39 158 22 291 137
345 300 14 42 17 74 12 157 -4 77 -1 113 9 138 18 43 18 105 0 148 -35 84
-185 182 -321 211 -77 16 -124 17 -202 4z"/>
<path d="M832 3887 c-46 -49 -12 -127 54 -127 39 0 74 36 74 76 0 65 -84 98
-128 51z"/>
<path d="M1582 3437 c-46 -49 -12 -127 54 -127 39 0 74 36 74 76 0 65 -84 98
-128 51z"/>
<path d="M432 3287 c-46 -49 -12 -127 54 -127 39 0 74 36 74 76 0 65 -84 98
-128 51z"/>
<path d="M1882 3287 c-46 -49 -12 -127 54 -127 39 0 74 36 74 76 0 65 -84 98
-128 51z"/>
<path d="M3282 3287 c-46 -49 -12 -127 54 -127 39 0 74 36 74 76 0 65 -84 98
-128 51z"/>
<path d="M1582 3137 c-46 -49 -12 -127 54 -127 39 0 74 36 74 76 0 65 -84 98
-128 51z"/>
<path d="M742 3010 c-40 -11 -97 -32 -125 -47 -67 -36 -184 -153 -220 -220
-34 -65 -67 -190 -67 -257 1 -157 87 -344 191 -413 54 -36 138 -43 190 -16 26
14 43 17 65 11 51 -14 172 -10 227 8 116 38 207 120 261 233 30 63 31 72 32
196 0 74 6 142 12 158 33 78 0 175 -81 239 -145 114 -316 152 -485 108z"/>
<path d="M2342 3010 c-40 -11 -97 -32 -125 -47 -67 -36 -184 -153 -220 -220
-34 -65 -67 -190 -67 -257 1 -157 87 -344 191 -413 54 -36 138 -43 190 -16 26
14 43 17 65 11 51 -14 172 -10 227 8 116 38 207 120 261 233 30 63 31 72 32
196 0 74 6 142 12 158 33 78 0 175 -81 239 -145 114 -316 152 -485 108z"/>
<path d="M4432 2987 c-46 -49 -12 -127 54 -127 39 0 74 36 74 76 0 65 -84 98
-128 51z"/>
<path d="M3432 2837 c-46 -49 -12 -127 54 -127 39 0 74 36 74 76 0 65 -84 98
-128 51z"/>
<path d="M3732 2837 c-46 -49 -12 -127 54 -127 39 0 74 36 74 76 0 65 -84 98
-128 51z"/>
<path d="M1532 2687 c-46 -49 -12 -127 54 -127 39 0 74 36 74 76 0 65 -84 98
-128 51z"/>
<path d="M2982 2687 c-46 -49 -12 -127 54 -127 39 0 74 36 74 76 0 65 -84 98
-128 51z"/>
<path d="M3732 2537 c-46 -49 -12 -127 54 -127 39 0 74 36 74 76 0 65 -84 98
-128 51z"/>
<path d="M1282 2237 c-46 -49 -12 -127 54 -127 39 0 74 36 74 76 0 65 -84 98
-128 51z"/>
<path d="M1782 2237 c-46 -49 -12 -127 54 -127 39 0 74 36 74 76 0 65 -84 98
-128 51z"/>
<path d="M1442 2010 c-104 -27 -167 -64 -247 -145 -82 -82 -118 -144 -145
-251 -32 -125 -21 -250 34 -364 83 -173 197 -243 322 -195 31 12 57 15 82 10
199 -37 388 59 476 244 30 63 31 72 32 196 0 74 6 142 12 158 33 78 0 175 -81
239 -145 114 -316 152 -485 108z"/>
<path d="M3232 1987 c-46 -49 -12 -127 54 -127 39 0 74 36 74 76 0 65 -84 98
-128 51z"/>
<path d="M632 1787 c-46 -49 -12 -127 54 -127 39 0 74 36 74 76 0 65 -84 98
-128 51z"/>
<path d="M3032 1787 c-46 -49 -12 -127 54 -127 39 0 74 36 74 76 0 65 -84 98
-128 51z"/>
<path d="M2432 1687 c-46 -49 -12 -127 54 -127 39 0 74 36 74 76 0 65 -84 98
-128 51z"/>
<path d="M3332 1487 c-46 -49 -12 -127 54 -127 39 0 74 36 74 76 0 65 -84 98
-128 51z"/>
<path d="M1932 1087 c-46 -49 -12 -127 54 -127 39 0 74 36 74 76 0 65 -84 98
-128 51z"/>
<path d="M1632 687 c-46 -49 -12 -127 54 -127 39 0 74 36 74 76 0 65 -84 98
-128 51z"/>
</g>
</svg>
