<?xml version="1.0" standalone="no"?>
<!DOCTYPE svg PUBLIC "-//W3C//DTD SVG 20010904//EN"
 "http://www.w3.org/TR/2001/REC-SVG-20010904/DTD/svg10.dtd">
<svg version="1.0" xmlns="http://www.w3.org/2000/svg"
 width="512.000000pt" height="512.000000pt" viewBox="0 0 512.000000 512.000000"
 preserveAspectRatio="xMidYMid meet">

<g transform="translate(0.000000,512.000000) scale(0.100000,-0.100000)"
fill="#000000" stroke="none">
<path d="M1530 4245 l0 -75 179 0 c165 0 180 2 205 21 34 27 36 77 3 107 -22
21 -32 22 -205 22 l-182 0 0 -75z"/>
<path d="M3760 3875 l0 -75 184 0 185 0 20 26 c24 30 26 43 10 77 -19 41 -49
47 -229 47 l-170 0 0 -75z"/>
<path d="M1530 3835 l0 -75 183 0 c179 0 184 1 205 23 29 31 28 72 -3 102 -24
25 -26 25 -205 25 l-180 0 0 -75z"/>
<path d="M3760 3466 l0 -76 184 0 185 0 20 26 c27 35 26 57 -3 91 l-24 28
-181 3 -181 3 0 -75z"/>
<path d="M1530 3426 l0 -76 185 0 c172 0 186 1 205 20 25 25 26 71 1 101 -19
23 -24 24 -205 27 l-186 3 0 -75z"/>
<path d="M3760 3045 l0 -75 170 0 c180 0 210 6 229 47 16 34 14 47 -10 77
l-20 26 -185 0 -184 0 0 -75z"/>
<path d="M3918 2610 c-26 -5 -72 -20 -103 -34 l-55 -25 0 -567 0 -566 -112
150 -113 150 -105 50 c-58 27 -127 57 -155 66 -78 24 -176 45 -170 36 3 -5 37
-51 76 -102 38 -51 88 -129 109 -173 168 -344 207 -874 91 -1213 -66 -191
-176 -313 -329 -363 l-57 -19 250 4 c280 5 334 13 445 71 36 20 88 58 115 85
l49 50 61 -59 c95 -92 233 -151 350 -151 227 1 431 162 490 387 21 82 23 2172
1 2154 -28 -23 -134 -52 -211 -58 -106 -7 -166 7 -289 67 -135 67 -214 81
-338 60z m432 -635 c54 -28 100 -103 100 -165 0 -39 -24 -98 -53 -128 -35 -37
-77 -55 -133 -55 -62 0 -104 22 -148 76 -28 35 -31 46 -31 106 0 59 4 72 28
104 16 21 39 45 53 54 51 33 128 36 184 8z m-149 -764 c34 -27 32 -86 -5 -117
-60 -53 -133 -8 -127 79 3 51 86 75 132 38z m166 -593 c39 -37 30 -99 -19
-124 -79 -41 -152 50 -97 120 27 34 82 36 116 4z"/>
</g>
</svg>
