<?xml version="1.0" standalone="no"?>
<!DOCTYPE svg PUBLIC "-//W3C//DTD SVG 20010904//EN"
 "http://www.w3.org/TR/2001/REC-SVG-20010904/DTD/svg10.dtd">
<svg version="1.0" xmlns="http://www.w3.org/2000/svg"
 width="30pt" height="30pt" viewBox="0 0 30.000000 30.000000"
 preserveAspectRatio="xMidYMid meet">

<g transform="translate(0.000000,512.000000) scale(0.100000,-0.100000)"
fill="#000000" stroke="none">
<path d="M1825 5108 c-46 -25 -55 -48 -55 -150 0 -119 21 -184 86 -264 95
-116 89 -77 89 -599 0 -504 -3 -534 -64 -710 -16 -44 -270 -669 -566 -1390
-296 -720 -546 -1339 -557 -1375 -73 -258 97 -542 362 -604 57 -14 242 -16
1441 -16 895 0 1395 4 1430 10 178 34 337 185 384 365 19 74 19 164 1 236 -8
31 -262 659 -565 1396 -302 737 -561 1378 -576 1424 -46 145 -55 255 -55 685
0 449 1 455 80 558 83 108 94 137 98 253 5 127 0 148 -41 173 -31 19 -54 20
-752 20 -504 -1 -726 -4 -740 -12z m1335 -212 c0 -12 -14 -41 -30 -62 -67 -86
-110 -159 -127 -212 -16 -52 -18 -102 -18 -532 1 -618 -7 -577 220 -1132 l122
-298 -760 0 c-718 0 -759 1 -754 18 2 9 57 144 121 300 214 518 207 487 213
1082 5 565 2 584 -118 736 -27 34 -52 76 -55 93 l-6 31 596 0 596 0 0 -24z
m253 -2448 c3 -7 170 -416 372 -908 202 -492 376 -920 387 -950 49 -137 -17
-292 -150 -357 l-57 -28 -1400 0 -1400 0 -46 21 c-60 28 -125 93 -151 150 -10
25 -20 70 -21 102 l-2 57 95 3 c52 1 105 7 117 14 30 15 56 72 48 107 -11 51
-48 75 -121 79 -43 3 -64 8 -61 16 3 6 28 68 57 138 l53 128 101 0 c107 0 130
9 155 57 20 39 13 73 -23 109 -31 31 -40 34 -91 34 -66 0 -67 -15 5 159 l48
116 105 3 c103 3 107 3 137 33 39 39 42 94 6 132 -26 29 -47 35 -117 39 l-46
3 56 135 56 135 114 5 c108 5 114 6 137 33 43 50 27 125 -33 156 -12 6 -47 11
-78 11 -31 0 -55 4 -53 8 2 5 27 68 57 140 l54 132 843 0 c664 0 843 -3 847
-12z"/>
<path d="M3226 1945 c-40 -21 -55 -44 -56 -83 0 -30 344 -889 377 -939 8 -12
30 -27 48 -33 75 -25 148 47 126 123 -24 84 -365 895 -384 914 -30 30 -75 38
-111 18z"/>
<path d="M3701 711 c-66 -61 -23 -171 66 -171 96 1 136 112 62 174 -42 36 -88
34 -128 -3z"/>
</g>
</svg>
