<?xml version="1.0" standalone="no"?>
<!DOCTYPE svg PUBLIC "-//W3C//DTD SVG 20010904//EN"
 "http://www.w3.org/TR/2001/REC-SVG-20010904/DTD/svg10.dtd">
<svg version="1.0" xmlns="http://www.w3.org/2000/svg"
 width="512.000000pt" height="512.000000pt" viewBox="0 0 512.000000 512.000000"
 preserveAspectRatio="xMidYMid meet">

<g transform="translate(0.000000,512.000000) scale(0.100000,-0.100000)"
fill="#000000" stroke="none">
<path d="M1880 5020 c-8 -5 -100 -49 -205 -97 -104 -48 -191 -88 -193 -89 -2
-1 58 -133 132 -294 75 -161 136 -296 136 -299 0 -3 -47 -28 -105 -55 -58 -27
-105 -54 -104 -60 0 -6 57 -135 127 -286 l128 -274 -34 -30 c-138 -121 -84
-350 94 -402 45 -13 67 -14 100 -7 l43 10 30 -66 c134 -295 193 -416 204 -413
6 2 56 24 110 49 54 25 99 44 101 42 1 -2 62 -134 136 -294 73 -159 134 -291
135 -293 1 -1 65 27 141 64 77 36 176 83 221 104 l82 38 -88 189 c-141 304
-185 407 -175 410 37 13 200 95 202 102 2 5 -37 94 -86 198 -49 103 -201 429
-337 723 -136 294 -251 539 -256 544 -5 6 -49 -10 -108 -37 -54 -26 -103 -47
-107 -47 -5 0 -16 15 -24 34 -8 19 -69 149 -135 290 -119 256 -129 269 -165
246z m475 -632 c37 -17 211 -363 201 -401 -12 -51 -60 -76 -109 -58 -21 8 -44
44 -117 191 -49 99 -90 191 -90 205 0 31 41 75 69 75 11 0 32 -5 46 -12z
m-393 -878 c48 -14 95 -61 108 -111 31 -112 -77 -220 -189 -189 -145 39 -156
245 -16 295 49 17 51 17 97 5z"/>
<path d="M1793 2789 c-69 -20 -123 -111 -109 -183 15 -73 106 -136 178 -122
54 10 98 43 118 89 25 54 25 81 -1 133 -33 69 -114 105 -186 83z m98 -98 c16
-16 29 -39 29 -51 0 -28 -52 -80 -80 -80 -28 0 -80 52 -80 80 0 28 52 80 80
80 12 0 35 -13 51 -29z"/>
<path d="M3550 2109 c-157 -72 -422 -191 -590 -266 -168 -75 -307 -137 -309
-140 -5 -4 57 -163 68 -175 3 -3 78 28 166 69 88 41 345 160 570 265 226 105
422 197 437 204 l28 14 -21 53 c-35 90 -44 107 -54 106 -5 0 -138 -59 -295
-130z"/>
<path d="M2081 1504 c-82 -22 -147 -62 -207 -127 -47 -51 -85 -120 -284 -518
-132 -264 -225 -459 -218 -460 7 0 -5 -6 -28 -13 -118 -37 -224 -171 -224
-283 l0 -23 1601 0 1602 0 -7 47 c-14 103 -84 194 -185 242 l-56 26 -717 3
-718 3 0 342 c0 188 -4 368 -10 401 -41 254 -303 426 -549 360z m210 -333 c16
-16 29 -39 29 -51 0 -28 -52 -80 -80 -80 -28 0 -80 52 -80 80 0 12 13 35 29
51 37 37 65 37 102 0z"/>
</g>
</svg>
