<?xml version="1.0" standalone="no"?>
<!DOCTYPE svg PUBLIC "-//W3C//DTD SVG 20010904//EN"
 "http://www.w3.org/TR/2001/REC-SVG-20010904/DTD/svg10.dtd">
<svg version="1.0" xmlns="http://www.w3.org/2000/svg"
 width="30.000000pt" height="30.000000pt" viewBox="0 0 512.000000 512.000000"
 preserveAspectRatio="xMidYMid meet">

<g transform="translate(0.000000,512.000000) scale(0.100000,-0.100000)"
fill="#000000" stroke="none">
<path d="M2085 5107 c-16 -8 -91 -51 -165 -97 -74 -45 -195 -119 -268 -163
-116 -71 -135 -86 -153 -125 -15 -31 -20 -54 -16 -79 4 -20 59 -125 128 -240
117 -195 123 -203 143 -190 12 7 181 109 376 227 195 117 359 216 363 220 12
10 -233 410 -264 433 -34 25 -105 31 -144 14z"/>
<path d="M3358 2372 c-208 -125 -378 -230 -378 -234 0 -21 244 -408 267 -424
19 -13 45 -19 83 -19 51 1 65 7 180 76 69 41 190 114 270 161 179 106 202 129
208 202 l4 54 -123 206 c-68 113 -126 206 -129 206 -3 -1 -175 -103 -382 -228z"/>
<path d="M2604 890 c-47 -23 -84 -81 -84 -130 0 -82 89 -160 167 -145 76 14
123 70 123 145 0 110 -109 179 -206 130z"/>
<path d="M1404 280 c-47 -23 -84 -81 -84 -130 0 -50 37 -107 85 -130 41 -20
56 -20 1276 -18 l1234 3 33 23 c41 30 62 70 62 122 0 52 -21 92 -62 122 l-33
23 -1235 3 c-1223 2 -1235 2 -1276 -18z"/>
</g>
</svg>
